
<?xml-stylesheet type="text/css" href="../style.css"?>
<svg version="1.1" id="Layer_1" xmlns="http://www.w3.org/2000/svg" xmlns:xlink="http://www.w3.org/1999/xlink" x="0px" y="0px" width="100%" viewBox="0 0 830 782" enable-background="new 0 0 830 782" xml:space="preserve">

    <path fill="#4895EF" opacity="1.000000" stroke="none" 
        d="
        M531.976257,438.992676 
        C534.234680,441.612854 536.120605,445.936157 538.822876,446.527344 
        C546.309448,448.165192 554.131042,448.333893 561.836914,448.814575 
        C562.628784,448.864014 564.061401,447.221069 564.295532,446.163849 
        C565.374878,441.288177 568.386841,441.636200 572.186707,442.508850 
        C575.845154,443.349060 579.646423,443.790680 583.401794,443.920685 
        C586.996765,444.045227 589.291077,442.485321 589.046753,438.236298 
        C588.565002,429.855743 588.288574,421.517365 583.603882,414.047516 
        C581.691040,410.997406 580.190369,407.655121 578.789429,404.324921 
        C576.061218,397.839752 573.987000,391.614349 579.967346,385.261353 
        C583.756165,381.236511 582.612732,377.757263 577.445312,376.321838 
        C570.311584,374.340179 569.079651,370.979523 574.608276,365.817352 
        C576.815552,363.756287 576.873169,361.637329 573.770752,359.887390 
        C569.945007,357.729431 570.719666,355.598083 574.014160,353.377930 
        C579.563354,349.638245 589.191956,350.317169 594.271606,354.697052 
        C598.205750,358.089233 602.476318,361.090363 606.574524,364.294495 
        C607.080444,364.690002 607.798096,365.247742 607.823608,365.759888 
        C608.214050,373.593292 614.706543,373.495819 619.857605,374.919525 
        C622.434387,375.631714 624.753784,375.660187 626.706848,378.419586 
        C627.962646,380.193817 631.705688,380.250946 634.360413,380.981476 
        C638.279968,382.060028 642.313660,382.798828 646.129089,384.158295 
        C649.519348,385.366241 650.552429,389.577728 648.459045,392.047211 
        C643.399780,398.015503 643.550354,398.720642 650.492432,401.812042 
        C651.547180,402.281769 652.567932,402.828003 654.098572,403.582397 
        C654.098572,407.835205 653.105042,412.673584 654.433411,416.756622 
        C655.384521,419.679901 659.331726,421.742828 662.172974,423.883148 
        C663.386658,424.797394 665.188049,424.931427 667.024475,425.516205 
        C667.024475,428.902405 667.028809,432.247223 667.023010,435.592010 
        C667.018677,438.062561 667.891296,439.405762 670.665710,438.702118 
        C676.516846,437.218140 682.343445,435.567566 688.273132,434.503693 
        C690.185364,434.160553 692.893799,434.849426 694.352844,436.099426 
        C697.333252,438.652710 700.052307,441.686676 702.185852,444.972778 
        C703.139404,446.441315 702.925232,449.145416 702.367737,451.030518 
        C700.492065,457.372742 698.157410,463.578094 696.185364,469.894196 
        C695.921204,470.740234 696.730835,471.921539 697.052307,472.977264 
        C706.673340,467.049103 715.922729,461.349976 724.709595,455.935822 
        C726.142090,459.859131 727.054321,462.941864 728.380981,465.834564 
        C729.854004,469.046326 732.029663,468.670197 734.128113,466.337982 
        C737.773499,462.286438 741.325134,458.149292 745.024536,454.148315 
        C745.840149,453.266144 747.279419,452.069336 748.139282,452.269928 
        C752.403625,453.264771 756.590454,454.617371 760.753662,455.997742 
        C761.584412,456.273224 762.455078,457.086456 762.856995,457.879822 
        C764.370239,460.867004 765.697571,463.948395 767.094543,466.994507 
        C767.695312,467.199127 768.296143,467.403717 768.896973,467.608337 
        C765.107117,471.902649 761.317200,476.196960 757.329529,480.715454 
        C760.671509,482.865448 763.586853,485.221710 763.126770,490.233887 
        C762.573730,496.259491 762.858215,496.398163 756.000000,495.017456 
        C756.000000,498.524902 756.106079,501.911713 755.964478,505.288086 
        C755.862000,507.729431 755.061340,510.187317 755.257507,512.581665 
        C755.429260,514.678345 755.964111,517.318542 757.359131,518.647339 
        C765.390137,526.297668 764.244690,537.167175 754.917603,542.626831 
        C747.211914,547.137390 739.854675,552.243347 731.060547,557.912109 
        C735.671326,558.751099 739.025208,559.242859 742.322205,559.986389 
        C748.781311,561.443176 749.515564,562.475220 745.952515,567.588562 
        C742.794067,572.121277 743.646179,576.241089 745.003174,580.846008 
        C746.346436,585.404358 744.688599,588.381409 740.383545,590.001282 
        C738.549805,590.691284 736.639954,591.942322 734.840820,591.819946 
        C729.073669,591.427368 726.439453,594.513855 724.963928,599.456360 
        C724.707092,600.316589 723.998169,601.639465 723.385742,601.705383 
        C715.608337,602.542542 712.932190,609.383118 708.292236,614.012329 
        C703.524414,618.769043 698.107483,622.875183 692.974670,627.266052 
        C692.416504,626.685669 691.858337,626.105286 691.300171,625.524902 
        C694.651184,623.491699 698.002197,621.458557 701.353210,619.425354 
        C700.763672,618.442749 700.174133,617.460083 699.584595,616.477478 
        C697.724731,616.477478 695.824707,616.705933 694.020630,616.388611 
        C692.997925,616.208801 691.225342,614.886353 691.331116,614.499207 
        C693.200623,607.654541 688.810486,602.635498 686.453247,597.043396 
        C686.080200,596.158569 684.898865,595.103088 685.125732,594.553833 
        C688.346680,586.755920 683.626099,578.669373 687.320374,570.247253 
        C691.418640,560.904419 692.092896,550.006470 693.851013,539.716125 
        C694.571655,535.498535 690.811523,532.462219 685.491394,531.984314 
        C683.471436,531.802917 681.470703,531.408203 679.321838,531.090027 
        C683.464355,523.309265 693.239136,520.771179 695.275085,511.946289 
        C688.747070,508.215515 678.840942,510.872589 677.260376,498.880707 
        C670.613586,501.178680 664.167664,503.196869 657.890808,505.647827 
        C653.358215,507.417694 648.621826,509.176025 644.751404,512.001282 
        C639.976746,515.486572 640.677368,521.586304 645.633606,524.863770 
        C649.103394,527.158203 652.761658,529.167664 656.953430,531.673706 
        C653.324463,534.861328 650.230774,537.099670 647.788025,539.904724 
        C646.330811,541.578125 644.732605,544.450745 645.211548,546.247498 
        C646.842957,552.368042 647.434753,558.913818 652.308716,563.942505 
        C658.829468,570.670288 664.881775,577.852173 671.135254,584.839050 
        C671.815735,584.499268 672.496155,584.159546 673.176636,583.819763 
        C671.017517,586.581665 668.691101,589.235352 666.794800,592.167236 
        C666.175720,593.124329 666.233459,595.011475 666.746704,596.118530 
        C668.435364,599.760742 670.717712,603.134949 672.311462,606.811768 
        C673.916931,610.515564 672.709473,613.412903 668.799316,615.069763 
        C663.521851,617.305969 658.428162,620.054688 653.016602,621.871338 
        C648.429382,623.411377 647.309998,627.121582 647.341919,630.650513 
        C647.419373,639.237366 642.141357,644.634583 635.665771,647.174072 
        C630.325500,649.268433 623.531250,647.862000 617.397827,647.608215 
        C615.399597,647.525574 613.453430,646.186157 611.183594,645.305237 
        C608.791565,649.246765 606.323975,653.312805 603.856323,657.378845 
        C603.329285,657.292236 602.802185,657.205566 602.275085,657.118958 
        C601.299561,654.323120 600.120483,651.578369 599.401489,648.718018 
        C598.559814,645.368896 597.105957,645.504639 594.464478,646.954956 
        C590.058960,649.373840 585.575195,651.796814 580.855103,653.448608 
        C577.195862,654.729187 572.358276,655.240662 570.241028,651.473694 
        C569.260559,649.729309 571.730896,645.805664 573.068115,643.081787 
        C573.977722,641.228882 575.635864,639.743408 577.732605,637.129639 
        C574.528931,636.682007 572.050232,636.504333 569.657043,635.954529 
        C567.180725,635.385742 564.787354,634.455750 562.357666,633.683777 
        C563.332397,631.195862 564.100464,628.596619 565.359070,626.261597 
        C566.116211,624.856934 568.044678,624.057373 568.717896,622.639709 
        C569.675964,620.621948 570.177917,618.315857 570.487610,616.079285 
        C570.928955,612.892517 570.639648,609.559387 571.430847,606.486694 
        C571.789001,605.095825 574.140503,603.145203 575.327759,603.310974 
        C576.831543,603.520874 578.765137,605.395508 579.286560,606.960876 
        C580.565918,610.802124 581.092285,614.889343 582.028076,618.852417 
        C582.348877,620.211060 582.986084,621.494934 583.478821,622.812988 
        C584.875671,622.149170 586.816650,621.856201 587.568604,620.752869 
        C589.938721,617.275513 592.272644,613.661987 593.857971,609.789062 
        C595.949097,604.680359 598.369629,599.347778 598.737061,593.980591 
        C599.226257,586.835022 604.071472,582.329956 607.987732,575.392578 
        C604.057495,576.746399 601.604187,577.833984 599.036682,578.426208 
        C593.452759,579.714050 590.807556,579.687683 590.987305,573.300110 
        C591.074280,570.210388 589.194763,569.894226 586.676086,570.094727 
        C584.677734,570.253723 582.645264,569.948853 580.626831,569.903503 
        C579.102295,569.869202 577.557068,569.772583 576.054321,569.964233 
        C573.316406,570.313293 570.603149,570.855469 568.175049,571.267029 
        C567.579468,570.572144 567.212036,570.344910 567.181946,570.079468 
        C565.958435,559.285217 566.056824,561.729126 556.372864,560.073975 
        C551.844727,559.300049 547.146667,559.555115 542.592651,558.886719 
        C539.445801,558.424866 537.271606,557.166687 538.438293,552.813293 
        C539.867554,547.480164 540.335754,541.860962 540.826416,536.330627 
        C540.916687,535.313416 538.796570,533.030518 538.268677,533.192810 
        C532.714722,534.899902 531.733093,531.644775 531.796265,527.421143 
        C522.376587,526.551025 516.164368,530.276672 513.002808,538.341248 
        C510.798157,543.964844 505.313171,543.766052 500.706268,544.945740 
        C497.604004,545.740051 494.386383,546.083862 490.599304,546.736206 
        C491.805603,549.320923 492.653259,551.200317 493.553589,553.054260 
        C496.078461,558.253357 494.690613,561.332764 487.884613,565.565063 
        C483.649689,568.198547 480.292389,567.413147 476.984406,563.512085 
        C476.473419,562.909546 473.781799,563.082703 473.174194,563.803589 
        C467.874847,570.091187 467.431610,570.118896 460.587524,566.409180 
        C458.776581,565.427551 456.263519,565.637024 454.061218,565.521545 
        C452.773743,565.454041 451.359009,566.225647 450.184021,565.919495 
        C447.440613,565.204651 444.807465,564.066772 442.129639,563.100281 
        C443.500885,561.152893 444.647064,558.987610 446.283569,557.297058 
        C452.326904,551.054260 454.084473,542.758484 450.258789,536.269897 
        C454.733765,531.975952 459.172974,528.715515 466.307831,530.679077 
        C469.164185,531.465149 474.791473,533.668518 475.327972,526.670715 
        C475.377197,526.028198 477.334106,525.345032 478.499817,525.006226 
        C484.788361,523.178589 486.385834,520.360229 483.773712,514.516968 
        C481.924957,510.381287 483.280273,507.496796 486.493378,505.054016 
        C488.049774,503.870758 489.959381,503.117828 491.401978,501.826874 
        C493.814270,499.667999 495.193634,497.454041 492.026367,494.407318 
        C487.534180,490.086121 488.174713,489.617157 492.083557,485.092133 
        C494.631989,482.141998 495.655853,477.874908 497.646179,473.897766 
        C497.929688,473.597778 497.969086,473.536163 498.258972,473.247498 
        C498.592529,470.070251 499.213898,467.039978 498.548004,464.325439 
        C497.480438,459.973358 495.040985,455.940582 494.114410,451.574799 
        C492.455109,443.756775 496.777161,438.077820 502.017700,432.992615 
        C501.990234,432.990356 501.991028,433.045380 502.296631,432.943817 
        C503.416748,432.226227 504.231232,431.610168 505.018616,430.991150 
        C504.991516,430.988129 504.990295,431.042664 505.365906,431.012726 
        C506.906677,430.435059 508.077820,429.899597 509.235992,429.337494 
        C514.834961,426.620056 516.311523,427.504639 518.081299,433.605804 
        C518.846375,436.243347 520.665894,438.575043 522.007446,441.017975 
        C522.008423,440.990295 521.953186,440.994720 522.129028,441.325439 
        C524.218506,441.101898 526.132202,440.547638 528.018799,439.990814 
        C527.991760,439.988251 527.991333,440.042511 528.345703,440.015106 
        C529.803284,439.672455 530.906433,439.357208 532.014587,439.020172 
        C532.019531,438.998413 531.976257,438.992676 531.976257,438.992676 z"/>
    <path fill="#FF9F40" opacity="1.000000" stroke="none" 
        d="M192.219604,405.662537 
        C189.463272,404.441376 186.695190,403.245819 183.955154,401.989166 
        C182.397156,401.274628 179.981293,400.821991 179.504028,399.629944 
        C177.055603,393.514526 175.131271,387.190369 172.975067,380.955994 
        C172.508026,379.605652 171.840744,378.324554 171.097870,376.628357 
        C172.539337,375.914978 174.070084,375.157410 175.063126,374.665955 
        C175.714676,367.688141 176.351059,360.934784 176.964005,354.179321 
        C177.008026,353.694061 177.075012,353.004333 176.805206,352.727325 
        C169.702148,345.433868 177.351974,342.074768 180.842529,337.675598 
        C182.950485,335.018951 181.888809,329.898071 178.482666,327.151520 
        C172.354935,322.210419 172.753235,319.430420 179.283340,314.803619 
        C183.571640,311.765259 187.205627,307.811310 191.192719,304.336304 
        C192.987946,302.771667 194.929840,301.375305 197.083176,299.684296 
        C195.950623,298.207031 194.688904,296.648743 193.521484,295.022736 
        C189.420593,289.310883 192.799835,282.684174 190.617996,276.271423 
        C192.720886,276.271423 194.186554,276.028839 195.540863,276.314392 
        C200.773575,277.417725 206.988129,273.719910 207.895050,268.627472 
        C208.106232,267.441620 207.955322,265.567841 207.197510,264.930969 
        C200.826553,259.576965 204.959000,253.491699 205.846191,247.676208 
        C205.959976,246.930328 206.970703,246.100418 207.763199,245.713882 
        C214.036713,242.653976 220.244339,239.407974 226.712463,236.819534 
        C229.969162,235.516251 233.725342,235.461090 236.789948,234.923279 
        C230.996246,228.491211 233.626953,213.626495 242.439270,208.977753 
        C246.303574,206.939255 250.522583,205.450943 254.736694,204.269958 
        C256.052124,203.901291 257.851715,205.444504 259.479980,205.950684 
        C260.834503,206.371750 263.237640,207.169479 263.503540,206.747147 
        C265.563446,203.475510 268.219238,200.111420 268.813141,196.469757 
        C270.805664,184.252762 262.576538,183.339157 253.248383,184.282791 
        C247.988815,184.814835 242.631332,184.378708 237.434753,184.378708 
        C236.124527,171.221588 236.122467,171.293518 223.812790,170.941452 
        C221.231720,170.867615 218.466049,170.487320 216.178177,169.412338 
        C214.765701,168.748688 213.075272,166.352173 213.277008,164.996674 
        C213.991074,160.199249 215.119064,155.391907 216.741959,150.819687 
        C218.695282,145.316513 222.015396,143.649475 227.589691,145.409576 
        C231.370132,146.603241 233.203171,145.693573 235.115601,142.318512 
        C236.212067,140.383469 238.945496,139.330566 241.024155,138.009857 
        C243.248703,136.596466 247.646423,134.967438 247.487762,134.071182 
        C246.816116,130.276993 245.782944,125.325165 243.049362,123.404045 
        C238.952026,120.524513 237.478851,118.787796 239.463974,113.716408 
        C242.234177,106.639320 236.482254,100.276413 227.838699,100.021187 
        C222.101852,99.851791 216.142166,100.963402 211.124954,97.016754 
        C208.029831,94.582054 204.783371,92.245430 202.150452,89.365906 
        C201.159103,88.281700 201.252640,85.690750 201.631958,83.957466 
        C203.246506,76.579758 201.557602,73.252899 194.324554,71.002411 
        C187.432404,68.857986 185.424911,66.473473 189.093491,59.274338 
        C194.775543,48.124020 198.777985,45.329422 210.712357,49.614201 
        C216.816284,51.805687 220.307770,49.179512 224.322266,46.141624 
        C226.155777,44.754139 227.679367,42.895515 229.636444,41.751785 
        C231.300552,40.779270 233.363785,40.438560 235.287796,39.972519 
        C239.344971,38.989761 243.585785,39.521568 246.564911,34.814205 
        C248.065094,32.443714 252.861008,31.508112 256.292633,31.157766 
        C261.958984,30.579260 267.727417,31.000656 272.717987,31.000656 
        C273.506805,33.983715 273.389008,38.916161 275.525696,40.257668 
        C278.197968,41.935387 282.723663,40.660984 286.331329,40.660984 
        C284.286926,46.535889 285.358154,47.817570 292.046722,46.990288 
        C297.443268,46.322815 299.682587,43.721809 300.051025,38.154022 
        C300.186340,36.108429 300.891449,34.100533 301.234833,32.538525 
        C304.135773,32.357304 306.505463,32.209270 309.355530,32.031231 
        C308.725098,30.626003 308.538757,30.184788 308.331940,29.753426 
        C304.481598,21.723715 308.600861,15.151170 317.639587,15.015445 
        C323.136658,14.932902 328.655609,15.298317 334.130127,14.937681 
        C345.396790,14.195492 348.156067,19.350569 351.978577,30.191021 
        C354.588776,37.593384 350.976410,44.293030 349.391602,51.222805 
        C346.887665,62.171707 342.605957,72.059067 333.948822,79.751488 
        C331.783020,81.675934 329.504242,84.629990 332.481598,87.836334 
        C334.994293,90.542313 337.777771,90.286949 340.968903,88.600250 
        C346.656982,85.593750 347.788086,86.448296 348.035522,92.681351 
        C348.291321,99.123726 349.913818,105.176826 353.337311,110.786377 
        C362.184845,125.283470 359.595673,132.430969 349.834595,143.751465 
        C344.478546,149.963196 339.514221,156.522186 334.569244,163.072525 
        C333.255463,164.812790 332.665619,167.099518 331.351624,170.000122 
        C334.497345,170.000122 336.751404,169.978317 339.004913,170.004379 
        C344.785217,170.071243 347.534698,173.462082 345.810120,179.033691 
        C344.956116,181.792725 343.195923,184.305176 341.648071,186.806885 
        C339.778870,189.827988 337.573547,192.643738 335.751740,195.690704 
        C334.276306,198.158279 331.992859,200.136795 334.470947,203.998749 
        C335.345093,205.361115 331.895996,210.399338 329.450928,212.750870 
        C326.684021,215.411865 324.779633,217.137802 329.224579,219.553497 
        C327.659882,222.359283 326.309113,224.726685 325.009827,227.122025 
        C321.781769,233.073196 327.586304,235.904312 329.575623,240.009979 
        C331.940796,244.891434 334.650848,249.605820 337.422028,254.786270 
        C341.127441,250.148361 345.128418,245.140472 349.038300,240.246658 
        C359.643005,242.736755 362.484833,248.284210 359.100250,258.080627 
        C358.011230,261.232666 357.645386,265.029022 358.332062,268.234253 
        C358.677124,269.844818 362.123474,270.790924 363.779602,272.324158 
        C365.953735,274.207458 368.127838,276.090759 370.662109,277.969727 
        C371.022217,277.965424 370.983978,277.964630 370.990265,278.376831 
        C370.655731,280.870026 370.314911,282.951050 369.998047,285.030701 
        C370.021942,285.029327 370.034760,284.983185 369.698761,284.998138 
        C368.567017,285.686066 367.771240,286.359009 366.998962,287.030273 
        C367.022461,287.028534 367.034607,286.983063 366.663818,287.001434 
        C363.853546,288.357147 361.414093,289.694489 358.998444,291.030243 
        C359.022278,291.028625 359.034546,290.982452 358.648315,291.008911 
        C357.010406,294.047821 355.758789,297.060333 354.354095,300.265869 
        C353.490875,301.138153 352.780762,301.817444 351.796661,302.747437 
        C351.014130,305.347931 350.505554,307.697693 349.997253,310.020111 
        C349.997498,309.992767 350.050201,310.007446 349.782043,309.726501 
        C348.324493,309.293854 347.135162,309.142212 345.980225,308.984253 
        C346.014648,308.977966 346.035248,309.044830 345.822571,308.666443 
        C344.557648,308.187378 343.505463,308.086700 342.299133,307.852844 
        C341.768433,307.328766 341.391876,306.937897 341.306091,306.174866 
        C340.563507,302.456177 337.576324,301.493896 336.221069,304.236938 
        C333.548340,309.646545 329.477478,310.349884 324.366455,309.925385 
        C324.279633,309.867218 324.014954,309.546265 324.309784,309.200256 
        C323.053375,306.567291 321.502167,304.280334 319.979706,301.992188 
        C320.008484,301.990997 320.004791,302.048492 320.208710,301.710022 
        C318.784363,300.853821 316.899048,299.542145 315.576935,299.970184 
        C311.896027,301.161926 310.631165,304.276642 310.992554,308.023773 
        C310.989166,307.993774 311.049469,307.991394 310.672607,307.817200 
        C309.862457,308.779541 309.429199,309.916046 308.993042,311.023682 
        C308.990143,310.994812 309.048187,310.996246 308.717163,310.784363 
        C305.264008,314.731506 302.151123,317.849915 295.900513,316.103271 
        C290.343201,314.550323 284.339691,314.468323 278.510590,314.053619 
        C273.823242,313.720093 271.042175,315.935303 271.057190,321.385132 
        C271.357056,324.828217 271.684387,327.831360 271.738800,331.028687 
        C271.645630,332.498230 271.825348,333.773529 272.000793,335.021484 
        C271.996552,334.994141 272.051514,335.000854 271.747192,334.768250 
        C269.120056,336.209045 268.638000,338.014435 271.015839,340.020233 
        C270.982727,340.013123 270.990173,339.945801 271.007385,340.335663 
        C272.563416,343.932281 272.252747,346.450958 269.047821,348.716553 
        C267.823730,349.581879 267.608063,351.873749 266.831757,353.548218 
        C266.730682,353.580933 266.514954,353.933411 266.145447,353.657867 
        C264.835236,354.259186 263.894531,355.136078 262.982971,356.013153 
        C263.012146,356.013367 263.012329,355.955017 262.663757,355.775360 
        C261.528442,356.734589 260.741760,357.873474 259.985413,359.015320 
        C260.015778,359.018311 260.027710,358.958496 259.626923,358.802673 
        C255.301331,359.443207 251.325989,360.058777 247.479279,361.134430 
        C246.140701,361.508759 245.120209,363.020599 243.984558,364.015015 
        C244.014664,364.017181 244.023636,363.957428 243.672516,363.771088 
        C242.550797,364.411316 241.780197,365.237885 241.002243,366.032410 
        C240.994873,366.000366 241.060013,365.991333 240.698563,366.153198 
        C239.891403,368.530426 239.133881,370.735443 239.059982,372.963165 
        C238.858871,379.024994 237.211456,381.085144 231.171722,380.913940 
        C226.860031,380.791718 225.461884,382.729553 224.927063,386.639587 
        C224.220779,391.802887 222.970917,396.891815 221.985291,402.016266 
        C222.015854,402.019806 222.030045,401.959930 221.649612,401.785461 
        C219.272705,401.128540 217.285461,400.297241 215.277618,400.244110 
        C212.144333,400.161224 208.133087,398.452881 206.832336,403.546234 
        C206.731171,403.579620 206.514053,403.932922 206.155182,403.663452 
        C204.869064,405.283264 203.941803,407.172607 203.008133,409.031525 
        C203.001724,409.001099 203.062881,409.012390 202.685318,409.019409 
        C200.518967,409.743896 198.730194,410.461334 197.117874,411.107971 
        C195.582031,409.374023 194.286911,407.911835 192.897797,406.372986 
        C192.567368,406.118256 192.372620,405.906982 192.219604,405.662537 z"/>
    <path fill="#4BC078" opacity="1.000000" stroke="none" 
        d="
        M206.514038,403.932922 
        C206.514053,403.932922 206.731171,403.579620 207.160583,403.258728 
        C210.773804,402.819244 213.960388,402.748047 217.140274,402.562317 
        C218.776352,402.466766 220.400497,402.167267 222.030045,401.959930 
        C222.030045,401.959930 222.015854,402.019806 222.371185,401.999329 
        C223.492493,401.063232 224.726028,400.247192 224.945709,399.215302 
        C226.054871,394.005188 226.900070,388.738922 227.898010,383.155823 
        C228.276840,383.126434 229.073761,383.097595 229.861847,382.998505 
        C239.503128,381.786285 240.264145,381.169830 240.980972,371.875946 
        C241.131531,369.923981 241.039993,367.953369 241.060013,365.991333 
        C241.060013,365.991333 240.994873,366.000366 241.294388,366.272888 
        C242.403809,365.682739 243.213715,364.820068 244.023636,363.957428 
        C244.023636,363.957428 244.014664,364.017181 244.379364,363.997742 
        C247.378021,363.317444 250.058655,362.798920 252.632675,361.955170 
        C255.154175,361.128632 257.567108,359.970886 260.027710,358.958496 
        C260.027710,358.958496 260.015778,359.018311 260.344482,359.001373 
        C261.452942,357.974640 262.232635,356.964844 263.012329,355.955017 
        C263.012329,355.955017 263.012146,356.013367 263.344116,355.998840 
        C264.622345,355.300690 265.568634,354.617035 266.514954,353.933411 
        C266.514954,353.933411 266.730682,353.580933 267.093903,353.301514 
        C268.361877,351.264252 269.266663,349.506378 270.171417,347.748535 
        C271.081177,348.347504 271.990936,348.946503 272.900696,349.545471 
        C272.900696,351.744659 273.464569,354.133820 272.799194,356.108826 
        C270.420013,363.170868 267.859222,370.193604 264.916168,377.037262 
        C262.243103,383.253113 263.272888,386.218811 270.009033,389.021057 
        C270.012360,388.989105 269.948639,388.980804 269.739014,389.331085 
        C270.308350,391.299988 271.079803,392.922272 271.867981,394.536377 
        C272.952972,396.758362 273.361633,399.760498 277.014771,399.019348 
        C277.010834,398.987244 276.946411,398.993011 276.803314,399.394562 
        C277.324829,400.191162 277.970184,400.890930 278.656982,400.934204 
        C285.606537,401.372528 292.562836,401.703491 299.647278,402.320740 
        C301.161865,403.881989 302.546417,405.187073 303.630188,406.851349 
        C306.373566,409.831940 308.014008,409.535034 310.021240,405.990356 
        C309.989075,405.987152 309.980347,406.051270 310.340240,406.252716 
        C314.091614,405.108948 326.724884,409.056091 328.540924,412.136932 
        C329.191284,413.240204 329.789154,414.549835 329.849579,415.792572 
        C330.031311,419.528320 329.936432,423.277496 329.981445,427.016296 
        C330.013397,427.011139 330.005859,426.946808 329.667053,426.739960 
        C328.201080,428.357361 327.073975,430.181610 325.978821,432.008972 
        C326.010742,432.012085 326.018311,431.948364 325.654785,431.744385 
        C324.509674,432.362213 323.728119,433.184052 322.978943,434.009857 
        C323.011353,434.013855 323.022736,433.949615 322.649811,433.757599 
        C317.914581,435.170258 313.440796,436.534576 309.238068,438.483459 
        C307.211121,439.423370 305.694489,441.463837 303.977417,443.006805 
        C304.008087,443.007660 304.005005,442.946381 303.603760,442.804321 
        C302.784637,444.448395 302.366760,446.234589 301.980957,448.015961 
        C302.013000,448.011169 302.005951,447.946716 301.656921,447.751282 
        C298.812378,454.159668 296.191681,460.719879 293.868256,467.383759 
        C292.474396,471.381653 294.545624,473.038208 298.458282,473.009247 
        C301.808716,472.984406 305.159760,473.045135 308.526581,473.181213 
        C308.542633,473.294403 308.930878,473.488647 308.622803,473.817108 
        C309.880676,477.000519 311.934021,477.052429 314.757599,475.793274 
        C316.994995,474.795441 319.590393,474.600342 322.019470,474.016327 
        C322.012146,473.983856 321.946198,473.993134 321.838593,474.441223 
        C322.657959,475.282196 323.584961,475.675049 324.527649,476.181244 
        C324.543335,476.294586 324.931519,476.489777 324.628723,476.843567 
        C327.557404,478.481964 330.788879,479.766541 334.015808,481.019043 
        C334.011261,480.986969 333.946747,480.993469 333.749298,481.346252 
        C334.830566,485.141022 336.109253,488.582977 337.692413,492.844452 
        C338.408325,492.912506 340.615387,493.122223 341.961578,493.250153 
        C341.961578,496.580139 340.787506,500.695129 342.240967,502.109009 
        C344.340179,504.151062 342.807098,505.471771 342.997925,507.027344 
        C342.992188,506.994629 343.057739,506.983887 342.707031,507.123840 
        C341.433777,510.353027 340.511230,513.442261 339.588654,516.531433 
        C340.052216,516.842407 340.515778,517.153381 340.979340,517.464355 
        C342.861267,516.672852 344.689453,515.690063 346.639862,515.142273 
        C348.701538,514.563232 350.879547,514.398621 353.007202,514.022339 
        C353.007660,513.991699 352.946442,513.995056 352.793274,514.387573 
        C357.932373,515.208252 363.224701,515.636414 368.530304,516.178345 
        C368.543610,516.292175 368.930969,516.490417 368.623505,516.838013 
        C369.125885,518.558228 369.342621,521.811340 371.806396,518.884949 
        C373.084595,517.366760 373.337311,514.985168 374.020355,512.988525 
        C373.987396,512.983459 373.971405,513.048157 374.403015,513.198975 
        C378.137787,513.349792 381.440918,513.349792 384.594910,513.349792 
        C384.967834,516.399231 385.179779,518.132202 385.422241,520.114746 
        C387.405853,519.801453 389.053925,519.541199 390.763245,519.271240 
        C390.389832,523.002991 389.678070,526.388306 389.886841,529.715820 
        C389.981049,531.217041 391.909088,532.603210 393.007080,534.016479 
        C393.009064,533.991333 392.958801,533.994812 392.975403,534.398682 
        C393.137573,537.043213 392.248230,539.879150 396.006744,540.015625 
        C396.007507,539.989502 395.955414,539.994690 396.069305,540.322876 
        C395.864960,541.749634 395.855255,543.141602 395.155518,543.877258 
        C394.127045,544.958557 392.605835,545.571167 391.021637,546.575439 
        C389.139191,547.487061 387.529694,548.206604 385.625763,549.055725 
        C384.861542,550.098206 384.391724,551.011169 383.616730,552.065063 
        C380.492554,553.678345 377.814545,555.661255 374.817505,556.488892 
        C371.369568,557.441223 368.276459,558.147644 366.878967,561.998962 
        C366.551239,562.902161 364.899719,563.962158 363.931732,563.893799 
        C356.940765,563.400696 349.968933,562.636047 342.991272,561.984558 
        C342.991516,562.011719 343.045471,562.006409 342.894714,561.644653 
        C338.677094,558.912659 335.039978,559.232300 331.975647,563.012695 
        C331.996552,563.018799 331.998596,562.976562 331.998596,562.976562 
        C330.892395,562.492737 329.786194,562.008850 328.342529,561.754517 
        C328.005066,561.984070 328.064484,561.990173 328.304718,561.698059 
        C327.683044,560.595520 326.821136,559.785034 325.985046,558.982300 
        C326.010864,558.989990 326.015228,559.043701 325.994324,558.663330 
        C318.425842,553.636230 310.751099,550.041199 302.607697,555.534180 
        C301.157043,554.082825 300.084717,553.010010 299.006714,551.967529 
        C299.001038,551.997986 299.061432,551.984558 299.188721,551.583679 
        C294.847229,548.507874 291.227936,551.176636 287.448944,553.163208 
        C287.413574,553.262817 287.065491,553.484924 286.778748,553.750366 
        C284.985931,557.690857 283.479828,561.365906 281.982117,565.015015 
        C281.990479,564.989136 282.044769,564.984619 281.640198,565.005005 
        C277.820709,564.996643 274.405792,564.967896 270.992371,564.973267 
        C270.993896,565.007324 271.062134,565.006104 271.247864,564.642456 
        C269.942169,561.844116 268.450745,559.409424 266.986328,556.980774 
        C267.013397,556.986877 267.024719,557.041199 266.928833,556.716675 
        C265.873962,555.923279 264.915009,555.454407 263.983337,554.987061 
        C264.010681,554.988708 264.029510,555.040100 263.878479,554.692383 
        C259.820618,551.983215 256.440552,552.758362 253.449448,556.164062 
        C253.413330,556.263550 253.064011,556.484070 252.790924,556.756775 
        C251.738174,557.559509 250.693954,558.717896 250.221146,558.518860 
        C246.801300,557.079224 244.629852,558.929077 242.381775,561.241760 
        C241.873459,561.774536 241.468536,562.130615 240.768707,562.758301 
        C239.754974,564.919861 239.036163,566.809937 238.314224,568.708191 
        C229.994339,565.860413 226.738937,566.354553 223.968674,570.994995 
        C224.000214,571.002625 224.006332,570.937988 223.635696,570.754272 
        C221.021851,571.370544 218.778641,572.170593 216.109970,573.122314 
        C216.190765,571.544067 216.037415,570.382019 216.338715,569.353088 
        C217.880447,564.088379 219.310699,558.771606 221.245117,553.648743 
        C222.362732,550.689026 221.925537,549.515869 218.792801,548.854980 
        C213.486877,547.735474 208.255508,546.262634 202.996307,544.970703 
        C202.999802,545.002991 203.063004,544.987488 203.250092,544.629456 
        C200.700012,541.880371 199.557480,538.964783 199.884064,535.264099 
        C199.976303,534.218811 198.676804,533.050781 198.009003,531.969238 
        C198.002380,531.999512 198.063126,531.987671 198.251984,531.643188 
        C196.604233,530.029358 194.767609,528.760010 192.832214,527.452454 
        C192.733444,527.414307 192.504822,527.068237 192.287537,526.690552 
        C191.713287,523.258789 191.748932,520.087341 190.881866,517.185669 
        C190.113388,514.613831 188.341537,512.341797 187.006897,509.968140 
        C187.001160,509.998901 187.063004,509.989288 187.239914,509.630310 
        C186.588333,508.678070 185.759827,508.084839 184.832489,507.453217 
        C184.733643,507.414825 184.504745,507.068146 184.300964,506.715637 
        C183.729599,502.044159 181.337906,500.949127 177.148041,500.792389 
        C174.040085,500.676147 171.003311,498.656799 167.835312,497.449463 
        C167.735779,497.413696 167.507462,497.068512 167.294403,496.733246 
        C163.648544,490.406708 163.045151,484.218292 165.597519,477.723297 
        C166.041519,476.593445 165.920990,475.241760 166.028809,473.996277 
        C165.996414,474.000000 166.011597,474.063446 166.346619,474.263855 
        C167.126007,473.628418 167.570374,472.792572 168.013611,471.983826 
        C168.012466,472.010895 167.961349,472.029022 168.307373,471.878265 
        C168.789871,470.815247 168.926315,469.902954 169.029968,468.994812 
        C168.997162,468.998901 169.011597,469.063446 169.346619,469.263855 
        C170.125992,468.628387 170.570358,467.792572 171.012543,466.983459 
        C171.010376,467.010162 170.958786,467.024689 171.283279,466.928802 
        C172.076706,465.873962 172.545654,464.914978 173.012604,463.982849 
        C173.010620,464.009705 172.959061,464.025238 173.293030,463.921082 
        C174.422852,462.196716 175.218704,460.576477 176.013123,458.983459 
        C176.011703,459.010681 175.960327,459.029022 176.305695,458.882080 
        C177.317352,457.420807 178.103928,456.152283 178.625198,454.782776 
        C179.751831,451.822968 178.985474,448.386841 177.006989,446.970215 
        C176.998428,447.001465 177.062790,447.009186 177.298828,446.696869 
        C177.010376,445.580048 176.485886,444.775543 175.986969,443.980286 
        C176.012543,443.989532 176.014908,444.043884 175.996918,443.650238 
        C175.657181,441.489655 175.335434,439.722717 175.012070,437.982727 
        C175.010452,438.009705 174.959091,438.026398 175.326752,437.900818 
        C177.330917,437.190430 178.981888,436.072327 180.601395,436.116211 
        C186.583572,436.278198 187.488098,435.054230 189.012131,426.982727 
        C189.010452,427.009583 188.959091,427.025726 189.309906,426.912750 
        C190.955750,426.242737 192.450745,425.932068 193.503998,425.077179 
        C195.664215,423.323700 197.822083,421.294220 193.984756,418.981903 
        C194.010330,418.989868 194.013046,419.043365 194.009018,418.653564 
        C194.357590,416.846771 194.710205,415.429810 195.032043,414.007324 
        C195.001282,414.001801 195.014297,414.062927 195.362152,414.258026 
        C198.160965,412.639557 200.611923,410.825958 203.062881,409.012390 
        C203.062881,409.012390 203.001724,409.001099 203.386597,409.182343 
        C204.685638,407.553345 205.599838,405.743134 206.514038,403.932922  z"/>
    <path fill="#A769DB" opacity="1.000000" stroke="none" 
        d="M352.070618,302.496704 
        C352.780762,301.817444 353.490875,301.138153 354.769531,300.428650 
        C356.570221,297.259766 357.802368,294.121094 359.034546,290.982452 
        C359.034546,290.982452 359.022278,291.028625 359.383301,291.151611 
        C362.174438,289.844116 364.604523,288.413605 367.034607,286.983063 
        C367.034607,286.983063 367.022461,287.028534 367.368958,287.159332 
        C368.488586,286.521149 369.261658,285.752167 370.034760,284.983185 
        C370.034760,284.983185 370.021942,285.029327 370.380859,285.125671 
        C373.864807,281.100891 373.900909,280.028259 370.983978,277.964630 
        C370.983978,277.964630 371.022217,277.965424 371.036682,277.977081 
        C370.568115,277.286255 370.220123,276.409668 369.578369,275.911743 
        C366.948273,273.871246 366.193024,272.056885 368.406555,268.822510 
        C370.035614,266.442200 370.673859,263.084686 370.875000,260.103333 
        C371.116302,256.526642 370.842163,253.016052 374.713013,251.182877 
        C379.109222,249.100891 382.946289,250.589966 386.654785,253.140533 
        C390.978088,256.113953 395.238373,259.231689 399.809235,261.778473 
        C404.926270,264.629608 408.460632,263.050446 410.737091,257.584839 
        C411.233490,256.393005 411.812317,255.234146 412.383026,254.074783 
        C414.649109,249.471497 417.656860,247.444092 422.629089,250.721420 
        C423.921753,251.573425 425.954498,251.275162 427.297943,252.084869 
        C428.739166,252.953476 430.923645,254.657196 430.782135,255.733261 
        C430.088684,261.006287 433.085083,264.100372 436.971222,267.290924 
        C435.722595,269.315613 434.410461,271.146179 433.433228,273.140839 
        C432.859497,274.311859 432.865143,275.755920 432.530304,277.056641 
        C430.807251,283.750702 430.797058,291.846527 426.835785,296.736877 
        C422.768341,301.758240 416.859436,307.432648 408.638184,307.058807 
        C407.598938,307.011566 406.010162,307.395630 405.552185,308.127869 
        C402.755310,312.599579 399.870239,310.787781 396.438812,308.941620 
        C394.500641,307.898834 391.899139,308.100464 389.601990,307.708862 
        C388.350952,307.495636 387.108124,307.229706 385.867828,306.959045 
        C384.604462,306.683319 383.015137,305.734131 382.147339,306.187531 
        C378.350494,308.171448 374.763794,310.557526 370.343689,313.260681 
        C376.098938,316.000488 381.268768,318.570343 386.535248,320.923920 
        C389.267334,322.144958 392.118866,323.183868 395.013275,323.928497 
        C397.165070,324.481995 399.611145,325.026489 401.686951,324.544617 
        C410.778351,322.434174 419.745453,319.782745 428.850708,317.742798 
        C430.606018,317.349548 432.844940,318.661469 434.743927,319.463440 
        C438.056671,320.862457 441.315948,322.402130 444.530426,324.016724 
        C450.313202,326.921478 456.349426,327.978851 462.831573,327.597168 
        C464.058319,327.524963 466.571381,330.162445 466.561432,331.535706 
        C466.518463,337.483002 470.464233,339.865082 474.853851,341.895569 
        C477.779114,343.248688 479.423615,345.032806 480.160461,348.368195 
        C480.979431,352.075531 484.278625,354.801636 487.856262,353.676819 
        C491.667877,352.478363 493.957367,354.000427 496.285767,355.934113 
        C498.548492,357.813263 500.431702,358.895721 503.700378,358.176239 
        C508.349121,357.153015 510.842010,359.758636 511.008209,364.622223 
        C511.041016,365.583191 511.154114,366.541443 511.225586,367.442871 
        C529.124146,369.481689 529.573975,369.636719 531.307068,382.913696 
        C532.784790,382.913696 534.647461,383.458588 535.888977,382.811523 
        C539.609802,380.872192 543.035461,382.516541 544.905823,384.779266 
        C548.591064,389.237518 553.072083,389.178772 557.906128,389.005890 
        C559.016968,388.966156 560.130432,389.000000 562.264282,389.000000 
        C557.809692,395.690247 553.808533,401.644775 549.871948,407.641724 
        C548.523926,409.695312 547.349731,411.862427 546.074646,413.964630 
        C544.270813,416.938629 542.130432,419.758362 540.716309,422.905670 
        C539.143311,426.406769 538.162170,430.182922 537.046326,433.876465 
        C536.483154,435.740570 536.191406,437.686707 535.779663,439.583466 
        C534.596191,439.244995 533.636719,438.970612 532.326782,438.844452 
        C531.976257,438.992676 532.019531,438.998413 532.131836,438.653687 
        C529.565918,435.794464 528.503418,437.243347 527.991333,440.042511 
        C527.991333,440.042511 527.991760,439.988251 527.637268,439.854065 
        C525.506226,440.144836 523.729736,440.569794 521.953186,440.994720 
        C521.953186,440.994720 522.008423,440.990295 522.146118,440.640717 
        C521.221985,437.554138 519.745605,434.895172 519.211426,432.058777 
        C518.644897,429.050903 517.735657,425.770447 514.600830,426.293182 
        C511.227142,426.855804 508.179962,429.376373 504.990295,431.042664 
        C504.990295,431.042664 504.991516,430.988129 504.648071,430.848480 
        C503.533417,431.487671 502.762207,432.266541 501.991028,433.045380 
        C501.991028,433.045380 501.990234,432.990356 501.662231,432.841919 
        C500.325623,433.196899 499.128113,433.498169 498.338562,434.236023 
        C492.403015,439.782654 491.309296,446.665649 492.685822,454.367371 
        C493.859955,460.936493 499.804108,466.165710 497.969086,473.536163 
        C497.969086,473.536163 497.929688,473.597778 497.937714,473.597107 
        C495.943054,475.439117 493.940338,477.281769 491.353455,479.661957 
        C487.234436,478.468994 482.154480,476.783661 476.957489,475.621826 
        C475.377625,475.268677 472.817810,475.779327 471.834503,476.891449 
        C467.742279,481.519928 464.014771,486.479401 460.287323,491.418427 
        C458.321014,494.023865 458.823181,496.241425 461.760956,497.970642 
        C463.291565,498.871582 464.578400,500.186737 466.639526,501.851135 
        C460.885376,506.084076 455.546814,510.011047 450.208496,513.938354 
        C440.299133,521.228516 430.331970,528.443054 420.555298,535.907043 
        C419.359436,536.820068 419.185059,539.071228 418.342316,541.435303 
        C421.540527,544.278015 424.933716,546.387573 428.326904,548.497192 
        C425.442078,551.607056 422.497589,554.664856 419.710266,557.859741 
        C418.915131,558.771118 418.576447,560.080750 417.811401,561.771362 
        C421.078735,563.855042 424.563110,565.375122 428.047516,566.895203 
        C426.614288,569.287231 425.626343,572.196167 423.620728,573.923706 
        C421.671082,575.603088 418.642456,575.990784 416.153381,577.094055 
        C413.638153,578.208801 411.203583,579.505554 408.116760,580.874268 
        C407.297150,581.030823 407.094513,581.035706 406.891876,581.040588 
        C406.891876,581.040588 406.436584,580.968872 406.146179,580.565247 
        C402.062042,578.025513 398.299500,575.829773 394.442566,573.814575 
        C393.830200,573.494690 392.793121,573.987671 391.952423,574.104797 
        C383.060577,573.256287 375.060364,575.108826 368.208801,581.620117 
        C365.821777,579.293884 366.447510,574.789246 361.887695,575.040588 
        C358.421356,573.706055 354.990845,572.265015 351.473846,571.080994 
        C349.667542,570.472900 347.706879,570.323486 345.475342,569.572144 
        C346.089783,567.839417 347.044922,566.501343 348.456848,565.100586 
        C352.955902,565.321045 356.998108,565.604187 361.039673,566.296448 
        C362.052399,567.468445 363.005310,568.781311 364.089508,568.900513 
        C369.162048,569.458557 374.122955,564.434265 375.357605,558.104980 
        C377.772949,557.683716 379.831299,557.321411 382.302612,556.971436 
        C384.066254,556.641846 385.611206,556.606384 386.729370,555.897644 
        C389.539612,554.116333 392.135590,552.000488 394.858887,550.077515 
        C396.849823,548.671631 399.327240,547.698181 400.787781,545.886902 
        C401.780853,544.655273 401.424805,542.309631 401.504120,540.454956 
        C401.507629,540.373108 399.837006,540.219666 398.562714,540.053589 
        C397.437958,540.003296 396.696686,539.999023 395.955414,539.994751 
        C395.955414,539.994690 396.007507,539.989502 396.154449,539.679932 
        C393.967834,538.336731 397.450592,533.686401 392.958801,533.994812 
        C392.958801,533.994812 393.009064,533.991333 393.161743,533.688538 
        C390.427765,530.564209 393.360443,527.029236 392.534882,523.999756 
        C396.132996,524.205933 398.863495,520.751221 402.368286,522.710938 
        C402.611511,522.846924 403.240784,522.337952 403.668732,522.091064 
        C406.620087,520.388550 410.720917,512.112915 409.855408,508.942505 
        C409.633362,508.129028 407.962982,507.710938 406.553040,507.068756 
        C403.682831,507.283691 400.379578,506.360565 401.372833,504.070282 
        C403.021790,500.268097 400.913696,497.284149 401.001251,493.976379 
        C401.005920,494.003235 400.951782,493.996765 401.321289,494.143005 
        C405.484558,493.684082 408.388855,488.891571 413.185791,492.189026 
        C415.549957,493.390472 417.229218,493.086151 416.830200,490.396057 
        C416.402374,487.511810 416.055573,484.260803 414.471283,482.019653 
        C413.289490,480.347839 410.195679,480.027588 407.524414,479.065796 
        C404.712952,478.664429 402.330505,478.302795 399.972107,477.967102 
        C399.996216,477.993073 399.926575,477.980133 400.292969,477.971741 
        C401.751404,476.747375 402.843475,475.531403 403.935547,474.315430 
        C402.274414,472.878387 400.613251,471.441315 398.979126,470.000458 
        C399.006165,469.996643 398.998291,470.050629 399.131714,469.654907 
        C399.035889,464.465302 402.853302,461.242035 409.024994,461.001221 
        C408.999390,461.005768 409.012268,460.955353 408.812531,461.249207 
        C408.755402,461.992004 408.898010,462.440918 409.033875,463.276489 
        C410.425751,467.088318 419.332825,469.455627 421.768158,466.895966 
        C422.142975,466.502045 421.265167,464.916290 421.138489,463.603577 
        C423.219452,461.937958 425.128571,460.550476 427.218567,459.472656 
        C430.366577,460.395721 433.333740,461.009094 436.300964,461.656403 
        C436.300995,461.690369 436.365631,461.711273 436.271088,462.083679 
        C436.989594,463.250183 437.802643,464.044342 438.615692,464.838470 
        C439.077301,463.946991 439.538910,463.055481 440.392029,462.102509 
        C444.521698,460.011200 448.259796,457.981354 452.001343,455.979553 
        C452.004791,456.007629 451.948395,456.003693 452.368408,456.080933 
        C453.421600,453.555084 454.054718,450.951935 454.722900,448.204712 
        C455.242035,448.162506 455.919983,447.963745 456.539429,448.079102 
        C463.115753,449.304016 469.230682,443.179077 467.832489,436.471710 
        C467.619202,435.448578 465.767242,434.836334 464.833649,433.877777 
        C463.461731,432.469208 462.273529,430.883057 460.926270,429.448425 
        C460.376678,428.863129 459.615814,428.476257 458.979187,427.997070 
        C459.007324,427.995056 459.000397,428.051025 459.106750,427.656372 
        C454.475372,423.038391 449.512512,425.080414 444.295624,426.970642 
        C441.494781,422.534027 439.591339,416.942078 432.976562,416.999390 
        C433.002960,416.994629 432.995148,417.047729 433.146423,416.705017 
        C432.823273,415.244263 432.348816,414.126251 431.906616,412.797302 
        C431.938843,412.586395 431.984222,412.162018 432.305328,411.927155 
        C432.742096,410.105194 432.857788,408.518066 432.984161,406.962402 
        C432.994873,406.993866 432.930725,406.976532 433.345917,406.962036 
        C435.826996,406.631287 437.991028,406.595459 439.930267,405.917114 
        C441.744385,405.282501 443.320251,403.966766 445.002869,402.978729 
        C445.004791,403.006683 444.949310,402.998657 445.323181,403.118958 
        C446.423157,401.162354 447.149261,399.085449 447.921631,396.641052 
        C449.212128,393.497711 449.977783,390.726959 447.923767,387.597900 
        C446.646027,382.556641 442.122162,383.450989 438.977417,381.999329 
        C439.004883,381.995087 438.999298,382.050415 439.115753,381.671936 
        C438.138123,380.863586 437.044067,380.433746 435.977539,379.998596 
        C436.005096,379.993317 436.004242,380.049438 436.083618,379.631378 
        C431.279816,378.719482 426.368225,377.649139 421.521057,377.887695 
        C416.266724,378.146240 411.151276,377.739563 410.894104,370.944183 
        C410.868652,370.271851 409.627655,369.645508 408.978638,368.995728 
        C409.006378,368.993622 408.999603,369.048889 409.117157,368.673035 
        C407.885162,367.534119 406.617401,366.394379 405.170410,366.080048 
        C401.137146,365.203979 397.029510,364.670135 392.978394,363.998627 
        C393.005493,363.996094 392.995483,364.049652 393.147522,363.690979 
        C391.776276,359.454163 390.049927,355.807404 384.976868,356.000061 
        C385.003540,355.996063 384.993103,356.049042 385.183167,355.660278 
        C385.262299,355.005219 385.151428,354.738922 385.089355,354.379517 
        C385.138153,354.286469 385.474121,354.042267 385.847809,354.222565 
        C386.456757,353.265686 386.692047,352.128510 386.964661,350.993530 
        C387.001953,350.995758 386.998901,351.070496 386.864838,350.744141 
        C383.533508,348.662750 380.336273,346.907684 375.989380,344.521545 
        C378.966919,344.069885 380.363159,343.858093 381.759369,343.646301 
        C381.881561,343.328125 382.003754,343.009979 382.125916,342.691803 
        C381.068970,342.129303 380.012054,341.566772 378.980652,341.000793 
        C379.006226,340.997375 378.995667,341.047852 379.143463,340.700439 
        C377.844879,339.236786 376.398529,338.120575 374.979187,337.000488 
        C375.006226,336.996613 374.998535,337.050690 375.130463,336.652283 
        C374.117920,330.550171 372.937531,324.673798 366.630768,322.434601 
        C363.614685,321.363739 360.189667,321.444641 356.976532,320.999146 
        C357.003174,320.994385 356.996338,321.048096 357.137329,320.701599 
        C356.494720,319.910187 355.711090,319.465302 354.960236,319.013123 
        C354.992981,319.005829 354.974609,319.070374 354.986450,318.600861 
        C355.012848,316.912292 355.027435,315.693237 355.090607,314.380524 
        C355.139221,314.286865 355.478058,314.044098 355.874969,314.218872 
        C356.793335,313.562592 357.314758,312.731476 357.836182,311.900360 
        C356.874023,311.600891 355.911865,311.301453 354.977081,310.997864 
        C355.004456,310.993774 354.999695,311.048889 355.116669,310.671753 
        C354.179291,307.695282 353.124939,305.096008 352.070618,302.496704 z"/>
    <path fill="#FAC832" opacity="1.000000" stroke="none" 
        d="
        M241.063614,562.486694 
        C241.468536,562.130615 241.873459,561.774536 242.765778,561.511108 
        C246.316376,561.064575 249.379578,560.525513 253.064011,559.877136 
        C253.064011,559.235840 253.064011,557.859924 253.064011,556.484070 
        C253.064011,556.484070 253.413330,556.263550 253.849594,556.431946 
        C257.533752,556.080261 260.781616,555.560181 264.029510,555.040100 
        C264.029510,555.040100 264.010681,554.988708 263.837952,555.365356 
        C264.785065,556.175049 265.904877,556.608154 267.024719,557.041199 
        C267.024719,557.041199 267.013397,556.986877 266.799103,557.327942 
        C268.077271,560.114685 269.569702,562.560425 271.062134,565.006104 
        C271.062134,565.006104 270.993896,565.007324 271.153870,565.333740 
        C272.019745,566.038025 272.685822,566.557068 273.438416,566.769531 
        C276.892670,567.744934 280.707520,566.914734 282.044769,564.984619 
        C282.044769,564.984619 281.990479,564.989136 282.355927,565.168091 
        C284.169403,561.393066 285.617432,557.438965 287.065491,553.484924 
        C287.065491,553.484924 287.413574,553.262817 287.855774,553.430237 
        C291.885803,553.059937 295.473602,552.522278 299.061432,551.984558 
        C299.061432,551.984558 299.001038,551.997986 299.015991,552.363037 
        C299.509430,554.068054 299.987854,555.407898 300.578491,557.062073 
        C302.040649,556.899658 303.855713,557.246765 304.827820,556.498596 
        C310.043396,552.484436 314.866333,554.892944 319.816315,556.929626 
        C321.831421,557.758789 323.945923,558.346252 326.015228,559.043701 
        C326.015228,559.043701 326.010864,558.989990 325.799835,559.333740 
        C326.414032,560.448364 327.239258,561.219299 328.064484,561.990173 
        C328.064484,561.990173 328.005066,561.984070 328.012939,561.955444 
        C328.525543,563.216736 329.030273,564.506714 329.686707,566.184326 
        C328.098999,567.653198 326.625946,569.723145 324.621216,570.684875 
        C322.313080,571.792175 319.223267,572.960266 317.013794,572.297913 
        C305.794098,568.934326 296.369934,571.634583 288.026825,579.439697 
        C286.474396,580.892090 284.800079,582.278320 282.978271,583.348145 
        C282.213196,583.797424 280.308990,583.758972 279.955536,583.239502 
        C274.584106,575.345032 267.485382,578.188049 260.468079,579.787231 
        C256.853363,580.611084 253.290253,583.507385 249.313232,580.280090 
        C248.834198,579.891296 246.586212,581.016907 245.673370,581.946594 
        C242.206314,585.477661 238.965790,589.230286 235.610611,592.872498 
        C233.739700,594.903442 232.027115,596.451599 229.864471,592.892151 
        C228.396957,590.476868 226.216461,591.331665 224.540390,592.997620 
        C218.326553,599.174072 210.737534,602.201843 202.140732,603.096619 
        C200.869980,603.228943 199.423080,603.565918 198.445236,604.314514 
        C190.801941,610.165649 183.253357,616.140564 175.045822,622.570679 
        C177.780441,625.724976 180.001556,628.287048 182.230820,631.283813 
        C182.238968,631.718506 181.930206,632.084229 181.930206,632.084229 
        C180.278290,631.384399 178.549179,630.824036 176.988098,629.960083 
        C170.870148,626.574158 164.055939,627.396667 159.223480,632.294861 
        C156.466904,635.088867 153.805099,637.976318 150.825470,641.111206 
        C150.212341,639.738647 149.286133,638.517456 149.160477,637.218811 
        C148.827637,633.779114 146.580551,633.969421 144.124161,634.044678 
        C140.823090,634.145813 137.516571,634.069702 133.814148,634.069702 
        C136.917572,624.408081 137.333939,616.008484 129.607330,608.876831 
        C127.800095,607.208740 127.164375,604.274231 125.981499,601.926453 
        C121.912407,593.850159 114.281364,590.826172 106.129021,594.476624 
        C99.860214,597.283691 93.848213,600.659424 87.658531,603.650940 
        C85.615707,604.638184 83.413101,605.720642 81.217133,605.888000 
        C73.635262,606.466003 66.026192,606.860168 58.423439,606.940308 
        C51.464836,607.013733 49.158936,603.246216 51.731674,596.697754 
        C52.389774,595.022705 53.177250,593.382019 53.656063,591.656372 
        C54.722115,587.814270 54.060497,584.539612 50.490826,582.096985 
        C48.199699,580.529236 46.157841,578.597229 44.391598,577.146606 
        C45.622021,571.525452 46.293438,566.327759 48.010609,561.502197 
        C48.883450,559.049438 51.261703,556.536621 53.615368,555.319885 
        C60.273582,551.878113 67.296745,549.148132 74.108131,545.991028 
        C75.254318,545.459778 76.457619,544.374512 76.961533,543.244995 
        C80.156151,536.084167 85.921974,533.307983 93.474091,535.853821 
        C97.925018,537.354248 101.471901,537.144226 105.170937,533.604065 
        C107.538925,531.337830 111.314102,530.591125 114.321762,528.917542 
        C115.391098,528.322571 116.747162,527.034119 116.793457,526.008972 
        C117.057854,520.155579 116.691711,514.267761 117.083176,508.428101 
        C117.396164,503.759277 116.596489,500.222595 111.675369,499.349670 
        C114.569328,493.397308 117.276543,487.744873 120.062477,482.131531 
        C121.644691,478.943542 121.098518,476.169312 118.956779,473.429443 
        C113.964523,467.043152 112.490112,462.920227 119.324936,454.598694 
        C123.202591,449.877594 128.375381,446.231934 132.876648,442.007874 
        C137.060028,438.082123 141.670319,434.799896 141.161850,427.631165 
        C140.287308,415.301392 140.739029,415.216095 152.451401,410.208649 
        C157.392258,408.096283 162.321945,405.954071 167.304855,403.944824 
        C171.838852,402.116577 176.116425,399.529724 181.364792,402.962799 
        C184.087723,404.743958 187.862823,404.916565 191.691101,405.739197 
        C192.372620,405.906982 192.567368,406.118256 192.604080,406.720337 
        C193.274323,409.450531 194.144318,411.756714 195.014297,414.062927 
        C195.014297,414.062927 195.001282,414.001801 194.672821,414.013092 
        C193.150482,414.938873 191.956589,415.853333 190.057861,417.307678 
        C191.366104,418.168243 192.013214,418.683563 192.740097,419.032990 
        C193.086121,419.199280 193.583969,419.049805 194.013046,419.043365 
        C194.013046,419.043365 194.010330,418.989868 193.815277,419.353943 
        C193.039398,421.153748 192.634552,422.699646 191.825348,423.992371 
        C191.101639,425.148529 189.931992,426.025543 188.959091,427.025726 
        C188.959091,427.025726 189.010452,427.009583 188.633087,426.841827 
        C187.859360,427.154327 187.182388,427.596527 187.111206,428.120941 
        C186.561905,432.167358 184.648239,434.252716 180.251465,434.539429 
        C178.419342,434.658905 176.719223,436.802917 174.959091,438.026398 
        C174.959091,438.026398 175.010452,438.009705 174.629913,437.847900 
        C171.960617,440.604370 172.872925,442.633698 176.014908,444.043884 
        C176.014908,444.043884 176.012543,443.989532 175.775116,444.302307 
        C176.046066,445.413086 176.554428,446.211151 177.062790,447.009186 
        C177.062790,447.009186 176.998428,447.001465 177.002502,447.364014 
        C176.657837,451.494049 176.309082,455.261536 175.960327,459.029022 
        C175.960327,459.029022 176.011703,459.010681 175.647522,458.827637 
        C174.508591,460.438110 173.733826,462.231689 172.959061,464.025238 
        C172.959061,464.025238 173.010620,464.009705 172.634338,463.837433 
        C171.824951,464.785004 171.391876,465.904846 170.958801,467.024689 
        C170.958786,467.024689 171.010376,467.010162 170.670929,466.805115 
        C169.891525,467.421173 169.451569,468.242310 169.011597,469.063446 
        C169.011597,469.063446 168.997162,468.998901 168.684616,469.139221 
        C168.235168,470.196045 168.098267,471.112549 167.961365,472.029022 
        C167.961349,472.029022 168.012466,472.010895 167.671967,471.805481 
        C166.891525,472.421173 166.451569,473.242310 166.011597,474.063446 
        C166.011597,474.063446 165.996414,474.000000 165.681946,474.139282 
        C162.112457,481.269958 160.808243,488.340027 164.856857,495.465637 
        C165.301956,496.249023 166.603271,496.545959 167.507462,497.068512 
        C167.507462,497.068512 167.735779,497.413696 167.565460,497.834412 
        C168.361908,502.098816 171.378647,501.985748 174.436127,502.027618 
        C177.935791,502.075592 181.869019,501.557678 182.534149,506.705627 
        C182.560287,506.907959 183.819870,506.950928 184.504745,507.068146 
        C184.504745,507.068146 184.733643,507.414825 184.565445,507.814209 
        C185.285828,508.805481 186.174423,509.397369 187.063004,509.989288 
        C187.063004,509.989288 187.001160,509.998901 187.016541,510.367249 
        C187.688232,514.375610 188.376770,518.010193 188.989243,521.657593 
        C189.381531,523.993713 188.634216,527.013611 192.504822,527.068237 
        C192.504822,527.068237 192.733444,527.414307 192.562225,527.795288 
        C194.281708,529.446777 196.172409,530.717224 198.063126,531.987671 
        C198.063126,531.987671 198.002380,531.999512 198.004410,532.358459 
        C198.038605,534.394043 197.856522,536.109131 198.148972,537.739075 
        C198.702698,540.825317 198.629562,544.478638 203.063004,544.987488 
        C203.063004,544.987488 202.999802,545.002991 203.133987,545.313721 
        C207.897415,547.084961 212.487244,548.692749 217.171722,549.946899 
        C219.702286,550.624451 220.389404,551.631104 219.467834,554.139343 
        C217.843933,558.559143 216.252609,563.015991 215.094543,567.570923 
        C214.546448,569.726685 215.030594,572.144958 215.047058,574.444275 
        C216.985809,573.974854 218.976257,573.650085 220.844223,572.982544 
        C221.994858,572.571411 222.958649,571.637329 224.006332,570.937988 
        C224.006332,570.937988 224.000214,571.002625 224.344940,570.987976 
        C229.916702,567.072693 235.257919,568.603821 241.063614,571.638306 
        C241.063614,567.927673 241.063614,565.207153 241.063614,562.486694 z"/>
    <path fill="#40C2B2" opacity="1.000000" stroke="none" 
        d="
        M434.222351,652.537964 
        C440.127808,643.210022 448.332611,638.478943 458.914856,640.229980 
        C463.808197,641.039673 468.524597,643.937988 472.884216,646.604004 
        C475.916107,648.458069 478.511627,649.319275 482.070465,648.574158 
        C485.425568,647.871826 488.987732,648.177979 492.456146,647.990723 
        C494.721252,647.868469 496.981537,647.657227 498.819244,647.518005 
        C500.321381,648.683838 501.706299,649.758728 503.287628,650.986023 
        C502.176758,658.332275 503.018372,658.107361 509.105957,663.283813 
        C514.864929,668.180847 520.924194,669.180908 527.822815,669.027039 
        C533.410706,668.902405 539.115845,671.854309 539.936584,675.045166 
        C541.076965,679.478699 537.542480,686.364258 532.629333,689.067444 
        C530.041443,690.491211 527.201050,691.505371 524.759888,693.132507 
        C522.335876,694.748352 519.862671,696.591675 518.125427,698.878113 
        C513.599487,704.834900 511.405243,705.846252 504.318848,704.190186 
        C497.764252,702.658569 492.191833,705.435303 486.498749,708.112915 
        C479.739685,711.291931 472.925903,710.751343 465.943756,708.163208 
        C463.483124,707.250977 460.166016,707.507263 457.576996,708.313049 
        C451.528046,710.195618 445.684052,712.736328 439.754730,715.004395 
        C439.153107,715.234619 438.337158,715.241516 437.955444,715.658508 
        C433.022034,721.047180 426.705994,720.186279 419.273621,719.732605 
        C421.804871,716.891846 423.790985,714.662842 426.149750,712.015686 
        C424.189178,711.261841 422.603607,710.378723 420.912292,710.064148 
        C418.188660,709.557678 415.515015,709.455383 416.636749,705.360718 
        C416.771057,704.870544 414.788300,703.108215 413.816162,703.132080 
        C410.388092,703.216309 406.981049,703.931702 403.549591,704.187256 
        C401.535034,704.337219 398.917023,704.851807 397.556549,703.855713 
        C391.576355,699.476807 384.877502,699.828918 378.119720,699.973206 
        C377.502228,699.986389 376.879700,699.762085 376.356293,699.665894 
        C376.242432,699.305115 376.120239,699.129639 376.152588,698.989929 
        C377.757446,692.052673 379.218323,685.074707 381.128876,678.222168 
        C381.498474,676.896484 383.517456,675.352417 384.969574,675.119751 
        C392.856842,673.855957 401.219025,674.175659 408.619659,671.630127 
        C416.566132,668.896912 423.768738,663.815186 430.974182,659.250427 
        C432.670380,658.175903 433.075836,655.063904 434.222351,652.537964 z"/>
    <path fill="#FF82AA" opacity="1.000000" stroke="none" 
        d="
        M422.140564,62.302742 
        C425.800934,59.698242 429.009338,57.027985 432.599426,55.050720 
        C438.436310,51.836018 444.667206,52.033123 450.772217,54.391315 
        C457.062897,56.821232 463.287964,59.426643 469.495911,62.063202 
        C473.919128,63.941788 472.831390,68.629967 472.693207,71.511398 
        C472.319427,79.308258 469.598236,86.531570 461.120850,89.318153 
        C458.393982,90.214493 455.361084,90.179726 452.151428,90.613770 
        C452.447723,88.365692 452.587524,87.305099 452.829163,85.471588 
        C451.588226,86.407036 450.405884,87.026688 450.480316,87.287041 
        C450.906586,88.778038 451.285858,91.058632 452.315430,91.465363 
        C456.562012,93.142937 457.786285,96.466469 456.779327,100.149590 
        C456.169006,102.381889 453.548370,104.029747 451.959534,106.041756 
        C450.926025,107.350555 450.123962,108.842133 449.218201,110.251808 
        C451.171387,110.649628 453.284454,111.728142 455.046967,111.314194 
        C459.823029,110.192505 464.450317,108.437340 469.136597,106.933380 
        C469.493713,107.468224 469.850861,108.003075 470.208008,108.537918 
        C467.833466,112.504379 465.344574,116.408821 463.142273,120.468712 
        C462.294464,122.031601 462.098602,123.948166 461.605713,125.703583 
        C463.441315,125.824554 465.432251,126.468765 467.086334,125.977959 
        C475.225128,123.562950 482.364471,112.156418 480.868469,103.794533 
        C480.459290,101.507515 478.761230,99.451088 477.483429,96.954323 
        C482.519897,94.251488 487.556702,91.269218 493.787231,94.872177 
        C496.405090,96.386017 497.413971,97.823250 495.732300,100.725487 
        C493.909210,103.871841 491.857361,107.082016 490.993958,110.536476 
        C489.999359,114.515686 489.439209,118.909958 490.059143,122.911949 
        C490.915253,128.438553 489.649963,133.150528 487.507080,138.043701 
        C485.962921,141.569580 484.613342,145.346130 484.138611,149.131485 
        C483.589417,153.510513 482.589386,157.053726 478.410095,159.349701 
        C473.535400,162.027679 469.193573,166.031158 464.049561,167.782364 
        C455.741608,170.610703 454.550110,167.024536 454.222778,160.980576 
        C453.962433,156.172607 451.888672,153.844391 447.982941,151.945923 
        C439.459656,147.802994 431.034271,143.829529 421.055664,144.844299 
        C418.116577,145.143204 414.884918,143.890030 411.976074,142.830231 
        C408.262024,141.477051 406.936005,137.178940 408.417145,132.186005 
        C409.350311,129.040207 410.784180,126.023430 411.500977,122.837959 
        C412.357788,119.030090 411.512756,115.764854 407.433319,113.902710 
        C406.094208,113.291443 404.237091,111.792152 404.206329,110.655922 
        C403.949493,101.167282 402.056000,91.147499 411.306488,84.133659 
        C413.015625,82.837738 414.887817,81.333794 415.763733,79.488647 
        C416.539093,77.855347 416.820251,75.128113 415.955536,73.723610 
        C412.114563,67.485031 412.274994,66.408401 419.048340,63.488739 
        C419.952667,63.098927 420.921173,62.858025 422.140564,62.302742 
        M453.135864,82.797493 
        C453.296387,83.489288 453.456909,84.181084 453.617432,84.872871 
        C454.150085,84.791817 454.682739,84.710762 455.215363,84.629707 
        C454.694977,80.603546 454.174561,76.577377 453.654144,72.551216 
        C453.072632,72.632614 452.491150,72.714012 451.909668,72.795410 
        C452.421021,75.888504 452.932373,78.981590 453.135864,82.797493 z"/>
    <path fill="#9B6335" opacity="1.000000" stroke="none" 
        d="
        M676.227051,731.336426 
        C671.239868,732.680664 666.915100,734.931946 661.646362,733.246399 
        C658.741333,732.316895 657.911865,731.350708 657.973267,728.626343 
        C658.260803,715.861267 663.507141,705.294739 672.245667,696.304565 
        C674.782959,693.694153 677.017639,690.217468 682.751160,691.433655 
        C681.420959,694.668518 680.595703,697.777832 678.977844,700.397644 
        C674.587769,707.506531 675.726624,710.209473 684.057495,710.950317 
        C687.174438,711.227478 690.336609,710.995178 693.737427,710.995178 
        C694.463440,706.849060 690.306763,701.540344 695.545349,699.228455 
        C700.969421,696.834656 705.490173,691.257385 713.108459,693.497375 
        C712.743469,695.963318 712.182190,698.460754 712.036560,700.982300 
        C711.605042,708.458008 714.135986,710.632690 721.718567,709.532471 
        C720.903687,702.641235 720.911987,702.663208 728.141968,699.922729 
        C729.510864,699.403870 730.865784,698.758240 732.088440,697.958923 
        C738.574829,693.718445 744.777283,694.791992 750.583313,699.159546 
        C754.487549,702.096252 756.819519,700.487854 759.399658,697.287415 
        C762.074829,693.969238 764.826721,690.417236 768.318848,688.170105 
        C770.255554,686.923889 774.081177,687.383362 776.523376,688.378967 
        C784.461487,691.615051 792.153625,694.400757 800.911011,691.174377 
        C805.284973,689.562988 807.116943,691.677002 808.007690,697.719238 
        C808.783752,702.983765 809.721985,708.224426 810.497681,712.924683 
        C805.723816,713.298645 800.647522,713.108948 795.885742,714.241455 
        C791.490723,715.286743 787.928772,715.367249 784.499451,712.135498 
        C783.584839,711.273621 781.934082,711.192932 780.125671,711.176880 
        C787.257690,715.528137 789.410828,721.672241 787.542603,729.734009 
        C777.592224,730.281494 768.000183,732.997314 759.043030,737.926025 
        C758.339478,738.313232 756.927917,738.143799 756.217773,737.672363 
        C751.040649,734.235046 746.126648,736.445129 741.329102,738.413879 
        C739.973633,738.970093 738.312561,740.694580 738.189941,742.013428 
        C737.635376,747.977356 734.220825,746.376770 731.328430,744.604126 
        C727.866455,742.482300 724.900940,739.567200 721.533447,737.269714 
        C718.534302,735.223389 715.308960,732.709534 711.834961,737.913879 
        C710.520508,735.557861 709.568420,733.935974 708.695862,732.272400 
        C705.221008,725.647522 698.430969,722.763855 691.513123,725.233765 
        C686.470032,727.034424 681.530823,729.126038 676.227051,731.336426 z"/>
    <path fill="#64D250" opacity="1.000000" stroke="none" 
        d="
        M193.046783,695.198975 
        C194.850021,688.808594 199.510910,685.013672 203.667435,680.805664 
        C206.253616,678.187500 209.211380,677.374390 212.689316,678.336426 
        C217.262207,679.601440 222.596863,679.684692 224.101974,685.805115 
        C224.198410,686.197388 226.482925,686.648743 227.091171,686.193359 
        C228.348984,685.251526 229.320389,683.807434 230.127335,682.407227 
        C232.002563,679.153503 234.023254,679.405334 236.938675,681.283386 
        C240.842728,683.798218 244.927567,686.241333 249.259689,687.828247 
        C254.335556,689.687561 255.123993,691.886475 252.746094,696.995972 
        C250.867264,701.033020 249.656616,705.573914 249.155731,710.004883 
        C248.660934,714.381897 251.301361,715.662781 255.487457,714.249878 
        C258.544037,713.218323 261.822235,712.859131 264.924316,711.939514 
        C266.287933,711.535400 268.087067,710.786072 268.621399,709.678711 
        C274.148987,698.222778 276.760620,701.802979 284.382385,705.943726 
        C285.935944,706.787720 287.292145,707.994934 288.812134,709.087036 
        C280.881348,715.864929 271.597137,720.930847 268.833893,730.232544 
        C265.631042,731.035217 263.356964,731.241577 261.426514,732.165771 
        C257.601318,733.996948 254.056290,736.416199 250.221542,738.223328 
        C247.495407,739.508057 244.618149,740.263916 242.734589,736.447205 
        C238.945221,728.768433 231.448471,725.980835 222.786636,726.899353 
        C216.270065,727.590393 209.533524,726.419861 202.927368,725.755310 
        C202.191605,725.681274 200.938812,723.335449 201.162643,722.314270 
        C202.842239,714.651367 200.046967,708.354675 195.878754,702.251526 
        C194.540924,700.292664 193.948685,697.824524 193.046783,695.198975 z"/>
    <path fill="#63B3ED" opacity="1.000000" stroke="none" 
        d="
        M501.721558,56.171944 
        C501.510132,49.632080 504.553802,46.363461 510.705536,46.310768 
        C510.490356,53.766068 515.628052,56.486980 521.727722,57.918484 
        C525.956665,58.910969 525.798706,60.602329 523.248474,63.242455 
        C522.092285,64.439384 520.700867,65.470108 519.784363,66.825272 
        C517.600342,70.054756 515.764526,73.438713 510.810394,71.399246 
        C503.540344,68.406410 503.040344,67.634636 503.583344,59.737495 
        C503.655792,58.683826 502.542053,57.548599 501.721558,56.171944 z"/>
    <path fill="#E8505B" opacity="1.000000" stroke="none" 
                d="
                M355.478058,314.044098 
                C355.478058,314.044098 355.139221,314.286865 354.814819,314.649200 
                C352.334534,317.699280 352.412476,318.352692 354.974609,319.070374 
                C354.974609,319.070374 354.992981,319.005829 354.749023,319.341309 
                C355.335480,320.133881 356.165924,320.590973 356.996338,321.048096 
                C356.996338,321.048096 357.003174,320.994385 357.116638,321.346802 
                C359.282654,322.466156 361.308929,323.781494 363.393463,323.881439 
                C367.276306,324.067627 369.736206,325.391998 371.052826,329.234894 
                C371.989838,331.969757 373.657166,334.454376 374.998535,337.050690 
                C374.998535,337.050690 375.006226,336.996613 375.007172,337.352448 
                C376.337311,338.821472 377.666504,339.934662 378.995667,341.047852 
                C378.995667,341.047852 379.006226,340.997375 378.829834,341.352905 
                C376.494354,341.558777 374.335236,341.409149 371.026611,341.179810 
                C375.613678,347.098389 380.509186,350.334259 386.998901,351.070496 
                C386.998901,351.070496 387.001953,350.995758 386.688354,351.262146 
                C386.074524,352.366425 385.774323,353.204346 385.474121,354.042267 
                C385.474121,354.042267 385.138153,354.286469 384.900879,354.590576 
                C384.773438,355.279480 384.883270,355.664246 384.993103,356.049042 
                C384.993103,356.049042 385.003540,355.996063 385.097076,356.325439 
                C387.792236,359.119781 390.393860,361.584717 392.995483,364.049652 
                C392.995483,364.049652 393.005493,363.996094 393.010712,364.383057 
                C393.926697,365.509186 395.151245,367.068817 395.699249,366.859253 
                C400.634857,364.971893 404.584290,368.350189 408.999603,369.048889 
                C408.999603,369.048889 409.006378,368.993622 409.000214,369.397583 
                C411.161469,380.732758 412.295807,378.764313 420.898682,379.034882 
                C425.939514,379.193481 430.969421,379.699646 436.004242,380.049438 
                C436.004242,380.049438 436.005096,379.993317 436.094574,380.298584 
                C437.122467,381.086029 438.060883,381.568237 438.999298,382.050415 
                C438.999298,382.050415 439.004883,381.995087 439.105042,382.334045 
                C442.096497,384.444305 444.987732,386.215637 447.878967,387.986938 
                C449.977783,390.726959 449.212128,393.497711 447.545654,396.660248 
                C446.398712,399.030823 445.674011,401.014740 444.949280,402.998657 
                C444.949310,402.998657 445.004791,403.006683 444.593628,403.015381 
                C442.287048,403.350342 440.303558,403.430573 438.519867,404.068878 
                C436.560852,404.769958 434.785858,405.985260 432.930725,406.976501 
                C432.930725,406.976532 432.994873,406.993866 432.601959,406.816040 
                C432.134094,408.479462 432.059143,410.320740 431.984222,412.162018 
                C431.984222,412.162018 431.938843,412.586395 431.557251,412.808655 
                C431.782166,414.369873 432.388672,415.708801 432.995148,417.047729 
                C432.995148,417.047729 433.002960,416.994629 433.098083,417.326111 
                C435.697083,419.878815 438.888214,421.690063 440.522522,424.429993 
                C442.365784,427.520233 443.775604,428.824097 447.361328,427.383026 
                C451.222290,425.831299 455.250580,425.602905 459.000397,428.051025 
                C459.000397,428.051025 459.007324,427.995056 458.999176,428.407715 
                C458.508057,431.867737 459.540100,434.200165 462.665009,434.807068 
                C466.544983,435.560669 466.314941,437.485321 465.231689,440.539001 
                C462.866364,447.206970 462.622681,447.478729 455.828033,446.084778 
                C455.071442,445.929565 454.241760,446.130798 453.608917,446.159363 
                C453.026215,449.613892 452.487335,452.808777 451.948425,456.003693 
                C451.948395,456.003693 452.004791,456.007629 451.629395,456.009216 
                C449.388184,456.913391 447.590271,458.344208 445.640717,458.594482 
                C442.726807,458.968628 439.706238,458.511871 436.456635,458.101898 
                C428.296600,455.564148 421.526031,457.989685 418.960480,463.987366 
                C418.992737,463.998352 419.004425,463.931213 418.626892,463.750000 
                C415.170319,462.697662 412.091309,461.826508 409.012268,460.955353 
                C409.012268,460.955353 408.999390,461.005768 408.875427,460.675049 
                C404.533752,458.644806 400.031342,460.366547 397.908661,464.324219 
                C396.674927,466.624603 396.235382,468.595001 398.998291,470.050629 
                C398.998291,470.050629 399.006165,469.996643 399.006470,470.346069 
                C399.903625,472.001251 400.800476,473.307007 401.489075,474.309631 
                C400.931396,475.619690 400.428986,476.799896 399.926575,477.980133 
                C399.926575,477.980133 399.996216,477.993073 399.601868,477.790222 
                C398.097809,478.395081 396.988037,479.202789 395.277863,480.447449 
                C402.015381,482.241425 411.211639,477.052002 411.231537,488.935699 
                C407.026123,488.765503 403.126007,489.672974 400.951782,493.996765 
                C400.951782,493.996765 401.005920,494.003235 400.678528,494.120911 
                C399.843353,499.033936 399.335541,503.829254 398.795166,508.932373 
                C401.469696,508.932373 403.395569,508.932373 405.393799,508.932373 
                C405.221619,510.125275 405.086182,511.063446 404.975281,512.006592 
                C404.999817,512.011597 404.996613,511.962250 404.656250,512.090881 
                C402.538910,515.127441 401.781769,519.147217 396.693176,517.968567 
                C393.697449,517.274719 390.531616,517.315308 387.643585,517.044495 
                C386.801300,515.538574 385.969177,512.434265 384.832489,512.318420 
                C381.273895,511.955688 377.600372,512.720337 373.971405,513.048157 
                C373.971405,513.048157 373.987396,512.983459 373.649170,513.003052 
                C371.850983,514.178589 370.390961,515.334473 368.930969,516.490417 
                C368.930969,516.490417 368.543610,516.292175 368.255127,515.880859 
                C363.300598,511.507690 357.989136,514.120117 352.946442,513.995056 
                C352.946442,513.995056 353.007660,513.991699 352.986450,513.621887 
                C349.488434,513.455139 346.011627,513.658142 342.147614,513.883789 
                C342.377472,512.140991 342.717590,509.562439 343.057739,506.983887 
                C343.057739,506.983887 342.992188,506.994629 343.353210,507.218597 
                C345.259064,505.265015 347.997589,503.200531 343.807587,500.774536 
                C343.184326,500.413635 343.125732,498.396729 343.394684,497.288849 
                C344.871887,491.203552 344.934814,491.218811 339.330719,490.819733 
                C337.797333,487.169708 338.181183,482.969574 333.946747,480.993469 
                C333.946747,480.993469 334.011261,480.986969 333.902527,480.665833 
                C330.839722,479.059723 327.885620,477.774750 324.931519,476.489777 
                C324.931519,476.489777 324.543335,476.294586 324.312744,475.873657 
                C323.370178,474.966217 322.658173,474.479675 321.946198,473.993134 
                C321.946198,473.993134 322.012146,473.983856 321.845581,473.650482 
                C319.338562,473.541016 317.000854,473.898407 314.656769,473.946899 
                C312.752106,473.986359 310.839783,473.655365 308.930878,473.488647 
                C308.930878,473.488647 308.542633,473.294403 308.309753,472.854492 
                C306.407654,469.387817 304.068054,470.163727 301.412567,470.902954 
                C299.813141,471.348236 297.471771,471.354187 296.317383,470.458038 
                C295.416016,469.758301 295.295532,467.196503 295.751343,465.753845 
                C297.645752,459.757935 299.890076,453.872620 302.005951,447.946716 
                C302.005951,447.946716 302.013000,448.011169 302.338257,447.898651 
                C303.110718,446.172882 303.557861,444.559631 304.005005,442.946381 
                C304.005005,442.946381 304.008087,443.007660 304.350159,442.995483 
                C310.802429,439.972046 316.912567,436.960815 323.022736,433.949615 
                C323.022736,433.949615 323.011353,434.013855 323.319153,434.001007 
                C324.424072,433.308228 325.221191,432.628296 326.018311,431.948364 
                C326.018311,431.948364 326.010742,432.012085 326.344116,431.997803 
                C327.786957,430.304626 328.896423,428.625732 330.005859,426.946808 
                C330.005859,426.946808 330.013397,427.011139 330.352692,426.886292 
                C332.341675,423.569519 331.317810,411.942169 329.041656,409.630005 
                C328.298004,408.874634 327.161560,408.463501 326.148895,408.023651 
                C323.510376,406.877747 320.660034,406.101562 318.227509,404.627777 
                C314.861023,402.588043 312.203094,402.494232 309.980347,406.051270 
                C309.980347,406.051270 309.989075,405.987152 309.619385,406.005219 
                C307.476776,406.179565 305.703888,406.335846 303.930969,406.492126 
                C302.546417,405.187073 301.161865,403.881989 299.376526,402.029297 
                C296.439301,400.737213 293.939758,399.563019 291.358459,399.341370 
                C286.579712,398.931061 281.753082,399.078094 276.946411,398.993011 
                C276.946411,398.993011 277.010834,398.987244 276.919434,398.684875 
                C274.534882,395.248627 272.241760,392.114716 269.948639,388.980804 
                C269.948639,388.980804 270.012360,388.989105 269.998535,388.661255 
                C268.751556,386.819824 267.373871,385.397461 266.339691,383.758362 
                C265.721527,382.778625 265.082153,381.264771 265.409454,380.324005 
                C267.706635,373.721008 269.525787,366.794861 272.919434,360.773285 
                C276.487030,354.442932 272.893250,348.511719 273.621948,342.455383 
                C273.708618,341.734802 271.913208,340.787842 270.990173,339.945801 
                C270.990173,339.945801 270.982727,340.013123 271.250122,339.684204 
                C271.695496,337.903809 271.873505,336.452332 272.051514,335.000854 
                C272.051514,335.000854 271.996552,334.994141 272.313721,334.911987 
                C274.801849,333.129608 273.869324,331.910339 272.011688,330.834473 
                C271.684387,327.831360 271.357056,324.828217 271.389038,321.272400 
                C273.590820,316.790863 276.602142,315.318481 280.920013,315.963135 
                C286.244995,316.758148 291.641907,317.092285 296.950439,317.971497 
                C303.387726,319.037628 306.978760,317.121704 309.048187,310.996246 
                C309.048187,310.996246 308.990143,310.994812 309.308289,310.913666 
                C310.100800,309.885468 310.575134,308.938416 311.049438,307.991394 
                C311.049469,307.991394 310.989166,307.993774 311.312988,307.883057 
                C313.493744,304.501282 314.392609,299.829590 320.004791,302.048492 
                C320.004791,302.048492 320.008484,301.990997 320.008820,302.357117 
                C321.344421,304.997589 322.679688,307.271912 324.014954,309.546265 
                C324.014954,309.546265 324.279633,309.867218 324.658325,310.209412 
                C330.380707,313.619324 331.949310,312.886414 338.523834,304.184540 
                C339.361084,304.978455 340.188171,305.762756 341.015289,306.547028 
                C341.391876,306.937897 341.768433,307.328766 342.606384,308.125305 
                C344.056915,308.702240 345.046082,308.873535 346.035248,309.044830 
                C346.035248,309.044830 346.014648,308.977966 345.786987,309.341431 
                C347.056274,309.805725 348.553253,309.906586 350.050201,310.007446 
                C350.050201,310.007446 349.997498,309.992767 350.372192,310.001770 
                C352.164490,310.356812 353.582092,310.702850 354.999695,311.048889 
                C354.999695,311.048889 355.004456,310.993774 355.091980,311.323181 
                C355.279053,312.449768 355.378540,313.246948 355.478058,314.044098 z"/>

</svg>